<svg width="16" height="16" viewBox="0 0 16 16" fill="none" xmlns="http://www.w3.org/2000/svg">
<g id="icon-microphone-off">
<path id="Vector" d="M2 2L14 14" stroke="white" stroke-linecap="round" stroke-linejoin="round"/>
<path id="Vector_2" d="M6 3.33325C6 2.80282 6.21071 2.29411 6.58579 1.91904C6.96086 1.54397 7.46957 1.33325 8 1.33325C8.53043 1.33325 9.03914 1.54397 9.41421 1.91904C9.78929 2.29411 10 2.80282 10 3.33325V6.66658C10 6.86402 9.97082 7.06037 9.91333 7.24925M8.58 8.58258C8.28112 8.67315 7.96518 8.69247 7.65749 8.63898C7.34979 8.5855 7.05891 8.4607 6.80812 8.27459C6.55733 8.08847 6.35361 7.84621 6.21328 7.56721C6.07295 7.28821 5.9999 6.98022 6 6.66792V6.00125" stroke="white" stroke-linecap="round" stroke-linejoin="round"/>
<path id="Vector_3" d="M3.33337 6.66675C3.33323 7.50898 3.56102 8.33555 3.99258 9.0588C4.42415 9.78206 5.04341 10.375 5.78468 10.7749C6.52596 11.1747 7.36163 11.3664 8.20306 11.3298C9.04449 11.2932 9.86032 11.0295 10.564 10.5667M11.8987 9.23341C12.4013 8.47187 12.6684 7.57917 12.6667 6.66675" stroke="white" stroke-linecap="round" stroke-linejoin="round"/>
<path id="Vector_4" d="M5.33337 14H10.6667" stroke="white" stroke-linecap="round" stroke-linejoin="round"/>
<path id="Vector_5" d="M8 11.3333V13.9999" stroke="white" stroke-linecap="round" stroke-linejoin="round"/>
</g>
</svg>
