<svg width="20" height="20" viewBox="0 0 20 20" fill="none" xmlns="http://www.w3.org/2000/svg">
<g id="icon-phone-call">
<path id="Vector" d="M4.16667 3.33337H7.5L9.16667 7.50004L7.08333 8.75004C7.9758 10.5596 9.44039 12.0242 11.25 12.9167L12.5 10.8334L16.6667 12.5V15.8334C16.6667 16.2754 16.4911 16.6993 16.1785 17.0119C15.866 17.3244 15.442 17.5 15 17.5C11.7494 17.3025 8.68346 15.9221 6.38069 13.6194C4.07792 11.3166 2.69754 8.25065 2.5 5.00004C2.5 4.55801 2.67559 4.13409 2.98816 3.82153C3.30072 3.50897 3.72464 3.33337 4.16667 3.33337" stroke="white" stroke-width="1.5" stroke-linecap="round" stroke-linejoin="round"/>
<path id="Vector_2" d="M12.5 5.83337C12.942 5.83337 13.366 6.00897 13.6785 6.32153C13.9911 6.63409 14.1667 7.05801 14.1667 7.50004" stroke="white" stroke-width="1.5" stroke-linecap="round" stroke-linejoin="round"/>
<path id="Vector_3" d="M12.5 2.5C13.8261 2.5 15.0979 3.02678 16.0355 3.96447C16.9732 4.90215 17.5 6.17392 17.5 7.5" stroke="white" stroke-width="1.5" stroke-linecap="round" stroke-linejoin="round"/>
</g>
</svg>
