<svg width="20" height="20" viewBox="0 0 20 20" fill="none" xmlns="http://www.w3.org/2000/svg">
<g id="icon-microphone">
<path id="Vector" d="M12.5 4.16663C12.5 2.78591 11.3807 1.66663 10 1.66663C8.61929 1.66663 7.5 2.78591 7.5 4.16663V8.33329C7.5 9.714 8.61929 10.8333 10 10.8333C11.3807 10.8333 12.5 9.714 12.5 8.33329V4.16663Z" stroke="white" stroke-width="1.5" stroke-linecap="round" stroke-linejoin="round"/>
<path id="Vector_2" d="M4.16663 8.33337C4.16663 9.88047 4.78121 11.3642 5.87517 12.4582C6.96913 13.5521 8.45286 14.1667 9.99996 14.1667C11.5471 14.1667 13.0308 13.5521 14.1247 12.4582C15.2187 11.3642 15.8333 9.88047 15.8333 8.33337" stroke="white" stroke-width="1.5" stroke-linecap="round" stroke-linejoin="round"/>
<path id="Vector_3" d="M6.66663 17.5H13.3333" stroke="white" stroke-width="1.5" stroke-linecap="round" stroke-linejoin="round"/>
<path id="Vector_4" d="M10 14.1666V17.5" stroke="white" stroke-width="1.5" stroke-linecap="round" stroke-linejoin="round"/>
</g>
</svg>
