<svg width="20" height="20" viewBox="0 0 20 20" fill="none" xmlns="http://www.w3.org/2000/svg">
<g id="icon-video-minus">
<path id="Vector" d="M12.5 8.33331L16.2942 6.43664C16.4212 6.37317 16.5623 6.34321 16.7042 6.3496C16.846 6.35599 16.9839 6.39852 17.1047 6.47315C17.2255 6.54778 17.3252 6.65204 17.3944 6.77604C17.4636 6.90003 17.4999 7.03965 17.5 7.18164V12.8183C17.4999 12.9603 17.4636 13.0999 17.3944 13.2239C17.3252 13.3479 17.2255 13.4522 17.1047 13.5268C16.9839 13.6014 16.846 13.644 16.7042 13.6504C16.5623 13.6567 16.4212 13.6268 16.2942 13.5633L12.5 11.6666V8.33331Z" stroke="white" stroke-width="1.5" stroke-linecap="round" stroke-linejoin="round"/>
<path id="Vector_2" d="M10.8333 5H4.16667C3.24619 5 2.5 5.74619 2.5 6.66667V13.3333C2.5 14.2538 3.24619 15 4.16667 15H10.8333C11.7538 15 12.5 14.2538 12.5 13.3333V6.66667C12.5 5.74619 11.7538 5 10.8333 5Z" stroke="white" stroke-width="1.5" stroke-linecap="round" stroke-linejoin="round"/>
<path id="Vector_3" d="M5.83337 10H9.16671" stroke="white" stroke-width="1.5" stroke-linecap="round" stroke-linejoin="round"/>
</g>
</svg>
